<svg xmlns="http://www.w3.org/2000/svg" viewBox="0 0 50 50"><defs><style>.cls-1{fill:#fff;}.cls-2{fill:#131313;}</style></defs><g id="Capa_2" data-name="Capa 2"><g id="CONTACT"><circle class="cls-1" cx="25" cy="25" r="25"/><path class="cls-2" d="M18.21,14.32a12.85,12.85,0,0,1,2.74.27,5.94,5.94,0,0,1,2.12.86,4,4,0,0,1,1.36,1.6,5.65,5.65,0,0,1,.48,2.46,4.64,4.64,0,0,1-.71,2.64,5.28,5.28,0,0,1-2.14,1.73,5.06,5.06,0,0,1,2.88,1.95,5.9,5.9,0,0,1,.94,3.37A5.78,5.78,0,0,1,25.27,32a5.4,5.4,0,0,1-1.65,1.89,7.35,7.35,0,0,1-2.39,1.09,10.83,10.83,0,0,1-2.74.35H8.33v-21Zm-.59,8.47a3.3,3.3,0,0,0,2-.59,2.18,2.18,0,0,0,.79-1.9,2.55,2.55,0,0,0-.26-1.21,1.89,1.89,0,0,0-.71-.72,2.76,2.76,0,0,0-1-.37,5.76,5.76,0,0,0-1.18-.11H13v4.9Zm.25,8.92a6,6,0,0,0,1.3-.13,3,3,0,0,0,1.08-.44A2.18,2.18,0,0,0,21,30.3a2.86,2.86,0,0,0,.28-1.36,2.72,2.72,0,0,0-.91-2.31,3.86,3.86,0,0,0-2.4-.69H13v5.77Z"/><path class="cls-2" d="M32.46,31.64a3.73,3.73,0,0,0,2.7.92,3.64,3.64,0,0,0,2.17-.64,2.63,2.63,0,0,0,1.12-1.34h3.67a6.93,6.93,0,0,1-2.71,3.91A7.85,7.85,0,0,1,35,35.68a8.78,8.78,0,0,1-3.24-.58,6.93,6.93,0,0,1-2.45-1.63,7.6,7.6,0,0,1-1.54-2.53,9.32,9.32,0,0,1-.55-3.23,8.93,8.93,0,0,1,.56-3.18A7.6,7.6,0,0,1,29.39,22a7.45,7.45,0,0,1,2.46-1.69A7.8,7.8,0,0,1,35,19.68a7.1,7.1,0,0,1,3.37.75,6.7,6.7,0,0,1,2.37,2,8.09,8.09,0,0,1,1.33,2.88,10.8,10.8,0,0,1,.29,3.38h-11A4.26,4.26,0,0,0,32.46,31.64Zm4.79-8a3.1,3.1,0,0,0-2.36-.84,3.61,3.61,0,0,0-1.66.34,3.25,3.25,0,0,0-1,.83,3.06,3.06,0,0,0-.56,1.07,4.69,4.69,0,0,0-.19,1h6.78A4,4,0,0,0,37.25,23.67Z"/><rect class="cls-2" x="30.58" y="15.73" width="8.5" height="2.07"/></g></g></svg>