<svg width="68" height="56" viewBox="0 0 68 56" fill="none" xmlns="http://www.w3.org/2000/svg">
<path d="M33.6501 5.00485L33.6509 5.00355C33.8256 4.69771 34.2581 4.69771 34.4329 5.00355L34.4336 5.00485L47.727 28.1077L61.0196 51.2094C61.0197 51.2096 61.0198 51.2097 61.0199 51.2099C61.2057 51.536 60.9577 51.9282 60.6286 51.9282H34.1335H7.45517C7.12617 51.9282 6.87813 51.5362 7.06376 51.2101C7.06389 51.2099 7.06403 51.2096 7.06416 51.2094L20.3568 28.1077L33.6501 5.00485Z" stroke="white"/>
<path d="M40.0671 1.33761L40.0679 1.33631C40.2426 1.03047 40.6751 1.03047 40.8499 1.33632L40.8506 1.33761L54.144 24.4405L67.4366 47.5422C67.4367 47.5423 67.4368 47.5425 67.4369 47.5427C67.6227 47.8688 67.3747 48.261 67.0456 48.261H40.5505H13.8722C13.5432 48.261 13.2951 47.8689 13.4807 47.5429C13.4809 47.5426 13.481 47.5424 13.4812 47.5422L26.7738 24.4405L40.0671 1.33761Z" stroke="white"/>
<path d="M28.6326 55.5034H1.95419C1.22076 55.5034 0.762349 54.6783 1.12906 54.0366L14.4224 30.9336L27.7158 7.83068C28.0825 7.18893 28.9993 7.18893 29.366 7.83068L42.6593 30.9336L55.9527 54.0366C56.3194 54.6783 55.8611 55.5034 55.1276 55.5034H28.6326Z" stroke="white" stroke-miterlimit="10"/>
</svg>
