<svg width="55" height="52" viewBox="0 0 55 52" fill="none" xmlns="http://www.w3.org/2000/svg">
<path d="M13.9003 41.0607L13.9003 41.5607L14.4003 41.5607L52.1526 41.5607L52.6526 41.5607L52.6526 41.0607L52.6526 3.30834L52.6526 2.80834L52.1526 2.80834L14.4003 2.80834L13.9003 2.80834L13.9003 3.30834L13.9003 41.0607ZM54.5002 43.4082L11.9609 43.4082L11.9609 0.868984L54.5002 0.868982L54.5002 43.4082Z" stroke="white"/>
<path d="M3.15323 48.7765L3.15323 49.2765L3.65323 49.2765L41.4056 49.2765L41.9056 49.2765L41.9056 48.7765L41.9056 11.0242L41.9056 10.5242L41.4056 10.5242L3.65323 10.5242L3.15323 10.5242L3.15323 11.0242L3.15323 48.7765ZM43.7531 51.124L1.21387 51.124L1.21387 8.5848L43.7531 8.5848L43.7531 51.124Z" stroke="white"/>
</svg>
