<svg width="69" height="55" viewBox="0 0 69 55" fill="none" xmlns="http://www.w3.org/2000/svg">
<path d="M19.3521 27.6382L18.9986 27.9918L19.3521 28.3453L41.1913 50.1845L41.5448 50.538L41.8984 50.1845L63.7375 28.3453L64.091 27.9918L63.7375 27.6382L41.8984 5.7991L41.5448 5.44555L41.1913 5.7991L19.3521 27.6382ZM15.5841 27.9918L41.5448 2.03102L67.5056 27.9918L41.5448 53.9526L15.5841 27.9918Z" stroke="white"/>
<path d="M4.47519 26.8285L4.12164 27.1821L4.47519 27.5356L26.3143 49.3748L26.6679 49.7283L27.0215 49.3748L48.8606 27.5356L49.2141 27.1821L48.8606 26.8285L27.0214 4.98941L26.6679 4.63586L26.3143 4.98941L4.47519 26.8285ZM26.6679 53.2526L0.707106 27.2918L26.6679 1.33106L52.6287 27.2918L26.6679 53.2526Z" stroke="white"/>
</svg>
