<svg xmlns="http://www.w3.org/2000/svg" viewBox="0 0 50 50"><defs><style>.cls-1{fill:#fff;}.cls-2{fill:#131313;}</style></defs><g id="Capa_2" data-name="Capa 2"><g id="CONTACT"><circle class="cls-1" cx="25" cy="25" r="25"/><path class="cls-2" d="M25,12.1c4.2,0,4.7,0,6.36.09a8.53,8.53,0,0,1,2.92.54,5.24,5.24,0,0,1,3,3,8.53,8.53,0,0,1,.54,2.92c.08,1.66.09,2.16.09,6.36s0,4.7-.09,6.36a8.53,8.53,0,0,1-.54,2.92,5.24,5.24,0,0,1-3,3,8.53,8.53,0,0,1-2.92.54c-1.66.08-2.16.09-6.36.09s-4.7,0-6.36-.09a8.53,8.53,0,0,1-2.92-.54,5.24,5.24,0,0,1-3-3,8.53,8.53,0,0,1-.54-2.92c-.08-1.66-.09-2.16-.09-6.36s0-4.7.09-6.36a8.53,8.53,0,0,1,.54-2.92,5.24,5.24,0,0,1,3-3,8.53,8.53,0,0,1,2.92-.54c1.66-.08,2.16-.09,6.36-.09m0-2.84c-4.27,0-4.81,0-6.49.09a11.56,11.56,0,0,0-3.82.74,8,8,0,0,0-4.6,4.6,11.56,11.56,0,0,0-.74,3.82c-.07,1.68-.09,2.22-.09,6.49s0,4.81.09,6.49a11.56,11.56,0,0,0,.74,3.82,8,8,0,0,0,4.6,4.6,11.56,11.56,0,0,0,3.82.74c1.68.07,2.22.09,6.49.09s4.81,0,6.49-.09a11.56,11.56,0,0,0,3.82-.74,8,8,0,0,0,4.6-4.6,11.56,11.56,0,0,0,.74-3.82c.07-1.68.09-2.22.09-6.49s0-4.81-.09-6.49a11.56,11.56,0,0,0-.74-3.82,8,8,0,0,0-4.6-4.6,11.56,11.56,0,0,0-3.82-.74c-1.68-.07-2.22-.09-6.49-.09Z"/><path class="cls-2" d="M25,16.92A8.08,8.08,0,1,0,33.08,25,8.08,8.08,0,0,0,25,16.92Zm0,13.33A5.25,5.25,0,1,1,30.25,25,5.25,5.25,0,0,1,25,30.25Z"/><circle class="cls-2" cx="33.4" cy="16.6" r="1.89"/></g></g></svg>