<svg xmlns="http://www.w3.org/2000/svg" viewBox="0 0 30 30"><defs><style>.cls-1{fill:#fff;}</style></defs><g id="Capa_2" data-name="Capa 2"><g id="CONTACT"><path class="cls-1" d="M30,12.5V23.75A6.25,6.25,0,0,1,23.75,30H6.25A6.25,6.25,0,0,1,0,23.75V10A6.25,6.25,0,0,1,6.25,3.75h10a1.25,1.25,0,0,1,0,2.5h-10a3.73,3.73,0,0,0-3.3,2l9.4,9.4a3.75,3.75,0,0,0,5.3,0l4.78-4.77a1.25,1.25,0,0,1,1.77,1.76l-4.78,4.78a6.25,6.25,0,0,1-8.84,0L2.5,11.34V23.75A3.75,3.75,0,0,0,6.25,27.5h17.5a3.75,3.75,0,0,0,3.75-3.75V12.5a1.25,1.25,0,0,1,2.5,0ZM21.25,6.25h2.5v2.5a1.25,1.25,0,0,0,2.5,0V6.25h2.5a1.25,1.25,0,0,0,0-2.5h-2.5V1.25a1.25,1.25,0,0,0-2.5,0v2.5h-2.5a1.25,1.25,0,0,0,0,2.5Z"/></g></g></svg>