<?xml version="1.0" encoding="utf-8"?>
<!-- Generator: Adobe Illustrator 26.1.0, SVG Export Plug-In . SVG Version: 6.00 Build 0)  -->
<svg version="1.1" id="Capa_1" xmlns="http://www.w3.org/2000/svg" xmlns:xlink="http://www.w3.org/1999/xlink" x="0px" y="0px"
	 viewBox="0 0 1233.9 185.9" style="enable-background:new 0 0 1233.9 185.9;" xml:space="preserve">
<style type="text/css">
	.st0{fill:#FFFFFF;}
</style>
<g>
	<g>
		<g>
			<path class="st0" d="M158.8,112.8h-30L238,0h50v128h-50V40.8l15,6.2l-79,81h-60L34.8,47.3L50,41.1v87H0V0.1h50L158.8,112.8z"/>
			<path class="st0" d="M319,0h50v128h-50V0z"/>
			<path class="st0" d="M450,0v90h116.6v38H400V0H450z"/>
			<path class="st0" d="M638.6,0v90h116.6v38H588.6V0H638.6z"/>
			<path class="st0" d="M827.2,74v16h152v38h-202V0h201.6v38H827.2v16h124v20H827.2z"/>
			<path class="st0" d="M1005.2,128V0h154.6c12.1,0,23,1.4,32.7,4.1s17.3,7.3,23,13.7s8.5,15.1,8.5,26.2c0,7.3-1.3,13.4-4,18.2
				s-6.3,8.5-11,11.2s-10,4.6-16,5.8s-12.3,1.9-18.8,2.2l-14.6-2.8c15.9,0.1,28.1,0.8,36.7,2s14.6,3.4,18,6.5s5.1,7.6,5.1,13.5V128
				h-50v-21.4c0-4-0.8-7-2.3-9.1s-4.9-3.5-10-4.3s-13-1.2-23.7-1.2h-78.2v36H1005.2L1005.2,128z M1055.2,58.6h104.6
				c4,0,7.4-0.7,10.1-2s4.1-3.9,4.1-7.6c0-3.5-1.4-5.8-4.1-7.1s-6.1-1.9-10.1-1.9h-104.6V58.6z"/>
		</g>
	</g>
	<rect y="127.9" class="st0" width="50" height="40"/>
	<rect y="155.9" class="st0" width="1220" height="30"/>
</g>
</svg>
