<?xml version="1.0" encoding="utf-8"?>
<!-- Generator: Adobe Illustrator 26.1.0, SVG Export Plug-In . SVG Version: 6.00 Build 0)  -->
<svg version="1.1" id="Capa_1" xmlns="http://www.w3.org/2000/svg" xmlns:xlink="http://www.w3.org/1999/xlink" x="0px" y="0px"
	 viewBox="0 0 2500 825.1" style="enable-background:new 0 0 2500 825.1;" xml:space="preserve">
<style type="text/css">
	.st0{fill-rule:evenodd;clip-rule:evenodd;fill:#FFFFFF;}
</style>
<g>
	<path class="st0" d="M1041.8,552.8l-279,9.9l264.9,14.7L1041.8,552.8z M1008.4,611.4l-279.6,9.9l265.9,14.8L1008.4,611.4
		L1008.4,611.4z M975,670.5l-279.3,9.8l265.6,14.8L975,670.5z M942.3,729.3l-279.6,10L927.9,754L942.3,729.3z M1284.2,256.8
		l-356.1,12.7l357.1,19.8L1284.2,256.8L1284.2,256.8z M1281.9,198.7L962,209.9l320.9,18.4L1281.9,198.7L1281.9,198.7z M1279.6,142.5
		l-285,9.4l286.4,15.9L1279.6,142.5z M1277.7,84.9l-249.8,8.4l250.8,14.8L1277.7,84.9z M1276.1,38.4h-217.3l217.6,11.5L1276.1,38.4z
		 M908.6,788.1l-279,10.1H903L908.6,788.1z"/>
	<path class="st0" d="M1854.1,40.2h-402l-11.4,20.2l201.2,10.7c2.4,0,2.4,3.3-1,3.3L1429,81.5l-20.4,35.8l199.8,11.8
		c2.7,0.3,2,4-0.3,4l-212.3,7l-19.8,34.3l199.5,11.1c4.4,0.3,4.4,4,0,4l-211.9,7.4l-20.1,35.8l198.8,11.4c4.4,0.3,4,4.4,0,4.4
		l-211.9,7.5l-20.5,35.4l199.2,11.1c3,0.3,3.4,4-0.7,4L897.8,327l579.4,32.2c3.7,0,3.3,4.7-0.7,4.7l-611.6,21.8l579.4,32.2
		c2.7,0,3.3,4.4-0.7,4.4L831,444.4l579.4,32.2c2.4,0.3,4.7,4.7-0.3,5l-611.6,21.8l579.4,32.2c1.7,0.3,3.3,4.7-0.7,4.7l-307.8,11
		l1,27.8l274.3,15.2c2,0.3,3,4.4-0.7,4.4l-272.6,9.7l1.3,31.1l238.1,13.2c2.3,0.3,3.3,5-0.7,5l-236,8.3l1,34.1l202.9,11.3
		c2.3,0.3,3,4.7-1,4.7l-200.8,7.2l1.3,37.5l167.6,9.3c2.4,0.3,2.4,4.4-1,4.4l-166,6l0.7,16.1H1620c143.5,0,272.2-104.6,296.4-187.8
		c24.2-83.1,24.2-158.3-91.2-195.8c64.4-14.8,176.4-87.4,198.5-187.8C2043.8,133.8,2010.3,40.6,1854.1,40.2L1854.1,40.2z
		 M1581.9,622.6h-166.3l93.9-166.3h123.4C1760.2,456.3,1698.5,622.6,1581.9,622.6z M1797.1,265.8c-5.4,20.1-45.6,71.1-96.6,71.1
		h-123.4l79.1-139.5h63C1799.8,200.1,1802.4,245.7,1797.1,265.8L1797.1,265.8z"/>
</g>
</svg>
