<svg xmlns="http://www.w3.org/2000/svg" viewBox="0 0 30 30"><defs><style>.cls-1{fill:#fff;}</style></defs><g id="Capa_2" data-name="Capa 2"><g id="CONTACT"><path class="cls-1" d="M29.38,13.75a.63.63,0,0,1-.63-.63A11.89,11.89,0,0,0,16.88,1.25a.63.63,0,1,1,0-1.25A13.14,13.14,0,0,1,30,13.12.63.63,0,0,1,29.38,13.75ZM25,13.12A8.13,8.13,0,0,0,16.88,5a.63.63,0,1,0,0,1.25,6.88,6.88,0,0,1,6.87,6.87.63.63,0,1,0,1.25,0Zm2.79,14.72L29,26.43a3.32,3.32,0,0,0,1-2.38A3.37,3.37,0,0,0,29,21.62L25.9,19.28a3.37,3.37,0,0,0-4.76,0l-1.91,1.87A19.34,19.34,0,0,1,8.86,10.77l1.86-1.91a3.34,3.34,0,0,0,0-4.69L8.33,1A3.47,3.47,0,0,0,3.6,1L2.13,2.24A7.34,7.34,0,0,0,0,7.47C0,17.16,12.84,30,22.53,30a7.36,7.36,0,0,0,5.26-2.16Zm-20.4-26L9.84,5a2.12,2.12,0,0,1,0,3L7.68,10.19a.62.62,0,0,0-.14.67,20.6,20.6,0,0,0,11.61,11.6.62.62,0,0,0,.66-.14L22,20.17h0a2.14,2.14,0,0,1,3.05.06l3.06,2.34a2.12,2.12,0,0,1,0,3L26.88,27a6.12,6.12,0,0,1-4.35,1.76c-9,0-21.28-12.33-21.28-21.28A6.1,6.1,0,0,1,3,3.15L4.45,1.87A2.16,2.16,0,0,1,6,1.24a2,2,0,0,1,1.42.57Z"/></g></g></svg>