<?xml version="1.0" encoding="utf-8"?>
<!-- Generator: Adobe Illustrator 26.1.0, SVG Export Plug-In . SVG Version: 6.00 Build 0)  -->
<svg version="1.1" id="Capa_1" xmlns="http://www.w3.org/2000/svg" xmlns:xlink="http://www.w3.org/1999/xlink" x="0px" y="0px"
	 viewBox="0 0 2500 363" style="enable-background:new 0 0 2500 363;" xml:space="preserve">
<style type="text/css">
	.st0{fill:#FFFFFF;}
</style>
<path class="st0" d="M418.8,132.2c-9.2,26-67.3,53.1-209.8,20.9l18.6,84.2c142.6,25.9,227.1,4.6,275.3-46.1
	c35.7-37.6,42.8-86.1,13.4-123.3C485.2,28.5,416.4,0,329.5,0C205.1,0,116.5,36,67.4,171.2L1.2,352.9h115.7l65.8-183.8
	c27-75.6,83.7-88.1,146.7-88.1C395.5,81,427.4,108.2,418.8,132.2z M1564.5,211.9l-4.5-1.9c25.9-10.3,54-15.9,81.9-15.9
	c16.9,0,54.6,2.9,70.5,12c3.9,2.2,7.4,5.6,5.5,9.8C1710.9,231.7,1607.7,230.8,1564.5,211.9L1564.5,211.9z M1775.8,169.4
	c-27.3-14.6-72.4-26.3-116.5-28.1c-91.5-3.8-195.8,27.4-216.5,101.2c-12,42.4,29.1,99.7,136.1,116c53.6,8.2,138.7,6.1,199.9-14.1
	l22.9-63c-124.2,42.7-286.5,30.3-281.1-33.6c60.1,38.6,147.8,34.9,212.7,24.3C1845.7,253.7,1844.1,205.9,1775.8,169.4L1775.8,169.4z
	 M1965.4,211.9l-4.4-1.9c25.9-10.3,54-15.9,81.9-15.9c17,0,54.6,2.9,70.5,12c3.9,2.2,7.4,5.6,5.5,9.8
	C2111.9,231.7,2008.7,230.8,1965.4,211.9z M2176.8,169.4c-27.3-14.6-72.4-26.3-116.5-28.1c-91.4-3.8-195.7,27.4-216.5,101.2
	c-12,42.4,29.2,99.7,136.1,116c53.6,8.2,138.7,6.1,199.9-14.1l22.9-63c-124.2,42.7-286.5,30.3-281.1-33.6
	c60.1,38.6,147.8,34.9,212.7,24.3C2246.7,253.7,2245.1,205.9,2176.8,169.4z M2261.2,223.6L2215.3,353h105.9l35.3-99.6
	c8.7-25.3,16-44.2,46.9-44.2h74.4l20.9-59.6h-137.1C2315.8,149.6,2278.9,172.3,2261.2,223.6z M486.8,353h109.7l74.1-203.4H561
	L486.8,353z M1198.4,243.5c10.2-28,41-40.9,68-40.9c26.8,0,52.4,15.8,42.5,43L1269.8,353h105.9l39.7-109
	c20.6-56.6-24-103.5-124.1-103.5c-111.3,0-174.5,36.4-198.8,103L1052.7,353h105.9L1198.4,243.5L1198.4,243.5z M871.7,204.7
	c42.8,1.8,77.3,23.3,71.1,51.3c-5.9,27-47.6,45.3-90.9,43.5c-42.8-1.8-77.3-23.4-71.2-51.4C786.7,221.2,828.4,202.8,871.7,204.7
	L871.7,204.7z M886.6,141.4c-110.3-4.7-208.6,42.5-221.8,102.8c-13,59.3,61.5,113.8,172.2,118.4c110.3,4.7,208.6-42.5,221.8-102.8
	C1071.9,200.6,997.3,146.1,886.6,141.4z"/>
</svg>
