<svg xmlns="http://www.w3.org/2000/svg" viewBox="0 0 50 50"><defs><style>.cls-1{fill:#fff;}.cls-2{fill:#131313;}</style></defs><g id="Capa_2" data-name="Capa 2"><g id="CONTACT"><circle class="cls-1" cx="25" cy="25" r="25"/><path class="cls-2" d="M20,39.4c12.21,0,18.89-10.12,18.89-18.89,0-.29,0-.57,0-.86a13.5,13.5,0,0,0,3.31-3.43,13.51,13.51,0,0,1-3.81,1,6.67,6.67,0,0,0,2.92-3.67A13.48,13.48,0,0,1,37,15.2a6.64,6.64,0,0,0-11.48,4.54,6.24,6.24,0,0,0,.17,1.51A18.86,18.86,0,0,1,12,14.32a6.66,6.66,0,0,0,2.06,8.86,6.55,6.55,0,0,1-3-.83v.08a6.64,6.64,0,0,0,5.33,6.51,6.78,6.78,0,0,1-1.75.24,7.26,7.26,0,0,1-1.25-.12,6.66,6.66,0,0,0,6.2,4.61,13.3,13.3,0,0,1-8.24,2.84,13.86,13.86,0,0,1-1.59-.09A18.83,18.83,0,0,0,20,39.4"/></g></g></svg>